<?xml version="1.0" encoding="UTF-8" standalone="no"?>
<svg xmlns:dc="http://purl.org/dc/elements/1.1/" xmlns:cc="http://creativecommons.org/ns#" xmlns:rdf="http://www.w3.org/1999/02/22-rdf-syntax-ns#" xmlns:svg="http://www.w3.org/2000/svg" xmlns="http://www.w3.org/2000/svg" xmlns:sodipodi="http://sodipodi.sourceforge.net/DTD/sodipodi-0.dtd" xmlns:inkscape="http://www.inkscape.org/namespaces/inkscape" viewBox="0 0 600 659.99997" height="660" width="600" xml:space="preserve" version="1.1" id="svg2" inkscape:version="0.91 r13725" sodipodi:docname="Logo IGN 2012.svg"><sodipodi:namedview pagecolor="#ffffff" bordercolor="#666666" borderopacity="1" objecttolerance="10" gridtolerance="10" guidetolerance="10" inkscape:pageopacity="0" inkscape:pageshadow="2" inkscape:window-width="1440" inkscape:window-height="788" id="namedview129" showgrid="false" inkscape:zoom="0.84784564" inkscape:cx="300" inkscape:cy="330" inkscape:window-x="0" inkscape:window-y="1" inkscape:window-maximized="1" inkscape:current-layer="svg2"/><metadata id="metadata8"><rdf:RDF><cc:Work rdf:about=""><dc:format>image/svg+xml</dc:format><dc:type rdf:resource="http://purl.org/dc/dcmitype/StillImage"/><dc:title/></cc:Work></rdf:RDF></metadata><defs id="defs6"/><g id="g16917" transform="matrix(9.4565629,0,0,-9.469235,-4773.2039,902.41146)"><g id="g16910"><path inkscape:connector-curvature="0" d="m 504.795,66.513 5.446,0 0,27.857 -5.446,0 0,-27.857 z" style="fill:#676c70;fill-opacity:1;fill-rule:nonzero;stroke:none" id="path11666"/><path inkscape:connector-curvature="0" id="path11670" style="fill:#676c70;fill-opacity:1;fill-rule:nonzero;stroke:none" d="m 563.1384,94.3693 0,-16.688 c -0.919,1.02 -15.878,17.618 -15.878,17.618 l -0.832,0 0,-28.787 5.058,0 0,16.462 c 0.921,-1.01 15.843,-17.391 15.843,-17.391 l 0.869,0 0,28.786 -5.06,0 z"/><g id="g16906"><path inkscape:connector-curvature="0" d="m 534.9186,74.5642 -0.289,0.011 0,-2.896 c -1.815,-0.688 -3.203,-0.962 -4.877,-0.962 -5.955,0 -9.802,3.985 -9.802,10.151 0,5.852 3.623,9.491 9.453,9.491 3.297,0 6.017,-1.221 8.084,-3.625 l 0.451,-0.522 0.4,6.345 -0.124,0.091 c -0.877,0.639 -1.289,0.843 -2.338,1.31 -2.185,0.953 -4.04,1.341 -6.396,1.341 -4.236,0 -8.061,-1.472 -10.77,-4.146 -2.712,-2.675 -4.204,-6.452 -4.204,-10.634 0,-8.656 6.166,-14.936 14.665,-14.936 2.129,0 4.535,0.371 6.597,1.02 1.442,0.44 2.25,0.771 4.11,1.684 l 0.157,0.075 0,7.047 -0.374,-0.135 c -1.483,-0.525 -3.077,-0.764 -4.743,-0.71" style="fill:#676c70;fill-opacity:1;fill-rule:nonzero;stroke:none" id="path11674"/><path inkscape:connector-curvature="0" d="m 533.8509,83.5074 c -0.012,0.005 -0.027,0.007 -0.038,0.012 -3.469,0.9 -6.995,0.389 -9.6,-1.332 1.444,-2.757 4.269,-4.902 7.729,-5.801 0.01,-0.002 0.028,-0.007 0.028,-0.007 3.47,-0.899 6.991,-0.389 9.595,1.33 -1.438,2.756 -4.257,4.902 -7.714,5.798" style="fill:#80cc28;fill-opacity:1;fill-rule:nonzero;stroke:none" id="path11678"/></g></g><g id="g16849"><path inkscape:connector-curvature="0" id="path11464" style="fill:#676c70;fill-opacity:1;fill-rule:nonzero;stroke:none" d="m 510.3125,55.0774 c 0,-0.157 -0.051,-0.287 -0.153,-0.389 -0.112,-0.116 -0.262,-0.175 -0.451,-0.175 -0.177,0 -0.313,0.045 -0.41,0.133 -0.042,0.039 -0.116,0.15 -0.224,0.336 l -1.726,2.919 0,-3.329 -0.708,0 0,3.545 c 0,0.403 0.202,0.605 0.604,0.605 0.184,0 0.323,-0.043 0.418,-0.129 0.052,-0.047 0.128,-0.158 0.231,-0.335 l 1.71,-2.916 0,3.343 0.709,0 0,-3.608 z"/><path inkscape:connector-curvature="0" id="path11468" style="fill:#676c70;fill-opacity:1;fill-rule:nonzero;stroke:none" d="m 514.6404,58.1177 -1.901,0 c -0.311,0 -0.505,-0.064 -0.581,-0.191 -0.045,-0.077 -0.068,-0.253 -0.068,-0.526 0,-0.143 0.058,-0.256 0.176,-0.335 0.097,-0.064 0.254,-0.096 0.473,-0.096 l 0.786,0 c 0.336,0 0.604,-0.074 0.805,-0.223 0.201,-0.149 0.302,-0.359 0.302,-0.63 l 0,-0.654 c 0,-0.284 -0.103,-0.503 -0.309,-0.655 -0.206,-0.152 -0.489,-0.227 -0.846,-0.227 l -2.121,0 0,0.604 1.901,0 c 0.316,0 0.512,0.069 0.589,0.207 0.035,0.072 0.052,0.259 0.052,0.56 0,0.281 -0.206,0.422 -0.618,0.422 l -0.787,0 c -0.326,0 -0.593,0.069 -0.802,0.207 -0.228,0.152 -0.343,0.359 -0.343,0.622 l 0,0.645 c 0,0.291 0.124,0.521 0.373,0.692 0.174,0.121 0.426,0.183 0.757,0.183 l 2.162,0 0,-0.605 z"/><path inkscape:connector-curvature="0" id="path11472" style="fill:#676c70;fill-opacity:1;fill-rule:nonzero;stroke:none" d="m 518.7708,58.1301 -1.267,0 0,-3.55 -0.742,0 0,3.55 -1.26,0 0,0.605 3.269,0 0,-0.605 z"/><path inkscape:connector-curvature="0" d="m 520.304,54.58 -0.742,0 0,4.154 0.742,0 0,-4.154 z" style="fill:#676c70;fill-opacity:1;fill-rule:nonzero;stroke:none" id="path11474"/><path inkscape:connector-curvature="0" id="path11478" style="fill:#676c70;fill-opacity:1;fill-rule:nonzero;stroke:none" d="m 524.3632,58.1301 -1.267,0 0,-3.55 -0.742,0 0,3.55 -1.26,0 0,0.605 3.269,0 0,-0.605 z"/><path inkscape:connector-curvature="0" id="path11482" style="fill:#676c70;fill-opacity:1;fill-rule:nonzero;stroke:none" d="m 528.8185,55.6245 c 0,-0.188 -0.018,-0.331 -0.053,-0.431 -0.046,-0.135 -0.137,-0.258 -0.272,-0.369 -0.134,-0.11 -0.275,-0.182 -0.424,-0.215 -0.102,-0.02 -0.27,-0.029 -0.504,-0.029 l -1.159,0 c -0.224,0 -0.389,0.012 -0.495,0.037 -0.16,0.033 -0.303,0.102 -0.429,0.207 -0.142,0.119 -0.236,0.242 -0.284,0.369 -0.029,0.088 -0.044,0.231 -0.044,0.431 l 0,3.098 0.741,0 0,-2.987 c 0,-0.215 0.051,-0.36 0.153,-0.436 0.102,-0.077 0.288,-0.114 0.556,-0.114 l 0.764,0 c 0.263,0 0.447,0.036 0.552,0.11 0.104,0.072 0.156,0.214 0.156,0.424 l 0,3.003 0.742,0 0,-3.098 z"/><path inkscape:connector-curvature="0" id="path11486" style="fill:#676c70;fill-opacity:1;fill-rule:nonzero;stroke:none" d="m 532.8815,58.1301 -1.267,0 0,-3.55 -0.742,0 0,3.55 -1.26,0 0,0.605 3.269,0 0,-0.605 z"/><path inkscape:connector-curvature="0" id="path11490" style="fill:#676c70;fill-opacity:1;fill-rule:nonzero;stroke:none" d="m 539.1757,55.0774 c 0,-0.157 -0.051,-0.287 -0.153,-0.389 -0.112,-0.116 -0.263,-0.175 -0.451,-0.175 -0.176,0 -0.313,0.045 -0.41,0.133 -0.042,0.039 -0.117,0.15 -0.224,0.336 l -1.726,2.919 0,-3.329 -0.708,0 0,3.545 c 0,0.403 0.202,0.605 0.604,0.605 0.185,0 0.323,-0.043 0.418,-0.129 0.052,-0.047 0.129,-0.158 0.231,-0.335 l 1.71,-2.916 0,3.343 0.709,0 0,-3.608 z"/><path inkscape:connector-curvature="0" id="path11494" style="fill:#676c70;fill-opacity:1;fill-rule:nonzero;stroke:none" d="m 542.9261,56.1628 -0.809,1.843 -0.734,-1.843 1.543,0 z m 1.472,-1.582 -0.794,0 -0.444,1.015 -2.011,0 -0.444,-1.015 -0.794,0 1.654,3.764 c 0.112,0.249 0.309,0.373 0.589,0.373 0.281,0 0.478,-0.124 0.589,-0.373 l 1.655,-3.764 z"/><path inkscape:connector-curvature="0" id="path11498" style="fill:#676c70;fill-opacity:1;fill-rule:nonzero;stroke:none" d="m 547.6608,58.1301 -1.267,0 0,-3.55 -0.742,0 0,3.55 -1.26,0 0,0.605 3.269,0 0,-0.605 z"/><path inkscape:connector-curvature="0" d="m 549.193,54.58 -0.742,0 0,4.154 0.742,0 0,-4.154 z" style="fill:#676c70;fill-opacity:1;fill-rule:nonzero;stroke:none" id="path11500"/><path inkscape:connector-curvature="0" id="path11504" style="fill:#676c70;fill-opacity:1;fill-rule:nonzero;stroke:none" d="m 553.1824,55.6695 0,1.93 c 0,0.194 -0.051,0.328 -0.153,0.404 -0.101,0.076 -0.27,0.114 -0.503,0.114 l -0.779,0 c -0.239,0 -0.409,-0.038 -0.511,-0.114 -0.101,-0.076 -0.153,-0.21 -0.153,-0.404 l 0,-1.913 c 0,-0.171 0.057,-0.303 0.168,-0.393 0.092,-0.073 0.257,-0.108 0.496,-0.108 l 0.779,0 c 0.228,0 0.395,0.035 0.499,0.108 0.105,0.071 0.157,0.197 0.157,0.376 m 0.73,-0.149 c 0,-0.626 -0.406,-0.94 -1.219,-0.94 l -1.121,0 c -0.393,0 -0.686,0.069 -0.88,0.207 -0.234,0.166 -0.35,0.407 -0.35,0.725 l 0,2.261 c 0,0.315 0.118,0.559 0.357,0.733 0.189,0.144 0.48,0.216 0.873,0.216 l 1.129,0 c 0.807,0 1.211,-0.317 1.211,-0.949 l 0,-2.253 z"/><path inkscape:connector-curvature="0" id="path11508" style="fill:#676c70;fill-opacity:1;fill-rule:nonzero;stroke:none" d="m 558.7437,55.0774 c 0,-0.157 -0.05,-0.287 -0.152,-0.389 -0.112,-0.116 -0.262,-0.175 -0.451,-0.175 -0.177,0 -0.313,0.045 -0.41,0.133 -0.043,0.039 -0.117,0.15 -0.224,0.336 l -1.726,2.919 0,-3.329 -0.707,0 0,3.545 c 0,0.403 0.2,0.605 0.603,0.605 0.184,0 0.323,-0.043 0.417,-0.129 0.052,-0.047 0.129,-0.158 0.232,-0.335 l 1.71,-2.916 0,3.343 0.708,0 0,-3.608 z"/><path inkscape:connector-curvature="0" id="path11512" style="fill:#676c70;fill-opacity:1;fill-rule:nonzero;stroke:none" d="m 562.4944,56.1628 -0.808,1.843 -0.735,-1.843 1.543,0 z m 1.473,-1.582 -0.794,0 -0.444,1.015 -2.013,0 -0.443,-1.015 -0.794,0 1.655,3.764 c 0.112,0.249 0.307,0.373 0.589,0.373 0.281,0 0.477,-0.124 0.589,-0.373 l 1.655,-3.764 z"/><path inkscape:connector-curvature="0" id="path11516" style="fill:#676c70;fill-opacity:1;fill-rule:nonzero;stroke:none" d="m 568.0123,54.5805 -1.973,0 c -0.432,0 -0.763,0.074 -0.995,0.221 -0.231,0.148 -0.346,0.405 -0.346,0.773 l 0,3.152 0.741,0 0,-3.007 c 0,-0.212 0.061,-0.361 0.183,-0.443 0.092,-0.064 0.289,-0.096 0.589,-0.096 l 1.801,0 0,-0.6 z"/><path inkscape:connector-curvature="0" id="path11520" style="fill:#676c70;fill-opacity:1;fill-rule:nonzero;stroke:none" d="m 507.7065,46.0672 0,1.905 c 0,0.332 -0.204,0.498 -0.611,0.498 l -1.604,0 0,-2.949 1.604,0 c 0.407,0 0.611,0.182 0.611,0.546 m 0.731,-0.199 c 0,-0.29 -0.096,-0.52 -0.286,-0.691 -0.19,-0.172 -0.461,-0.257 -0.815,-0.257 l -2.586,0 0,4.146 2.572,0 c 0.743,0 1.115,-0.309 1.115,-0.927 l 0,-2.271 z"/><path inkscape:connector-curvature="0" id="path11524" style="fill:#676c70;fill-opacity:1;fill-rule:nonzero;stroke:none" d="m 512.7886,46.6889 -2.419,0 0,-0.7 c 0,-0.309 0.216,-0.464 0.648,-0.464 l 1.916,0 0,-0.605 -2.117,0 c -0.365,0 -0.65,0.071 -0.853,0.211 -0.225,0.158 -0.336,0.381 -0.336,0.668 l 0,2.332 c 0,0.286 0.099,0.512 0.298,0.676 0.198,0.165 0.473,0.247 0.824,0.247 l 2.184,0 0,-0.605 -1.923,0 c -0.428,0 -0.641,-0.152 -0.641,-0.456 l 0,-0.708 2.419,0 0,-0.596 z"/><path inkscape:connector-curvature="0" id="path11528" style="fill:#676c70;fill-opacity:1;fill-rule:nonzero;stroke:none" d="m 520.235,44.9203 -1.971,0 c -0.433,0 -0.765,0.074 -0.996,0.221 -0.232,0.148 -0.347,0.405 -0.347,0.773 l 0,3.152 0.742,0 0,-3.007 c 0,-0.213 0.061,-0.36 0.183,-0.443 0.091,-0.064 0.288,-0.096 0.589,-0.096 l 1.8,0 0,-0.6 z"/><path inkscape:connector-curvature="0" id="path11532" style="fill:#676c70;fill-opacity:1;fill-rule:nonzero;stroke:none" d="m 520.9078,49.2271 c 0,-0.088 -0.015,-0.169 -0.045,-0.244 l -0.325,-0.762 -0.394,0 0.268,0.65 c -0.14,0.16 -0.209,0.289 -0.209,0.385 0,0.119 0.035,0.22 0.105,0.3 0.069,0.083 0.155,0.123 0.256,0.123 0.098,0 0.179,-0.044 0.245,-0.133 0.066,-0.088 0.099,-0.194 0.099,-0.319"/><path inkscape:connector-curvature="0" d="m 523.026,44.92 -0.742,0 0,4.154 0.742,0 0,-4.154 z" style="fill:#676c70;fill-opacity:1;fill-rule:nonzero;stroke:none" id="path11534"/><path inkscape:connector-curvature="0" id="path11538" style="fill:#676c70;fill-opacity:1;fill-rule:nonzero;stroke:none" d="m 527.8843,45.4174 c 0,-0.157 -0.051,-0.287 -0.153,-0.389 -0.112,-0.116 -0.262,-0.175 -0.451,-0.175 -0.176,0 -0.313,0.045 -0.409,0.133 -0.043,0.039 -0.117,0.15 -0.225,0.336 l -1.725,2.919 0,-3.329 -0.709,0 0,3.545 c 0,0.403 0.202,0.605 0.604,0.605 0.185,0 0.324,-0.043 0.418,-0.129 0.053,-0.047 0.129,-0.158 0.231,-0.335 l 1.711,-2.916 0,3.342 0.708,0 0,-3.607 z"/><path inkscape:connector-curvature="0" id="path11542" style="fill:#676c70;fill-opacity:1;fill-rule:nonzero;stroke:none" d="m 532.3892,46.6847 -2.572,0 0,-1.764 -0.742,0 0,3.292 c 0,0.268 0.114,0.485 0.343,0.651 0.184,0.127 0.456,0.19 0.816,0.19 l 2.155,0 0,-0.605 -1.953,0 c -0.413,0 -0.619,-0.142 -0.619,-0.426 l 0,-0.742 2.572,0 0,-0.596 z"/><path inkscape:connector-curvature="0" id="path11546" style="fill:#676c70;fill-opacity:1;fill-rule:nonzero;stroke:none" d="m 536.5319,46.0094 0,1.93 c 0,0.194 -0.051,0.328 -0.153,0.404 -0.102,0.076 -0.27,0.114 -0.503,0.114 l -0.78,0 c -0.238,0 -0.408,-0.038 -0.51,-0.114 -0.102,-0.076 -0.153,-0.21 -0.153,-0.404 l 0,-1.913 c 0,-0.171 0.056,-0.303 0.168,-0.393 0.092,-0.073 0.257,-0.108 0.495,-0.108 l 0.78,0 c 0.228,0 0.395,0.035 0.499,0.108 0.105,0.071 0.157,0.197 0.157,0.376 m 0.73,-0.149 c 0,-0.626 -0.406,-0.94 -1.218,-0.94 l -1.123,0 c -0.393,0 -0.685,0.069 -0.879,0.207 -0.234,0.166 -0.35,0.407 -0.35,0.725 l 0,2.262 c 0,0.314 0.119,0.558 0.357,0.732 0.19,0.144 0.479,0.216 0.872,0.216 l 1.13,0 c 0.807,0 1.211,-0.317 1.211,-0.948 l 0,-2.254 z"/><path inkscape:connector-curvature="0" id="path11550" style="fill:#676c70;fill-opacity:1;fill-rule:nonzero;stroke:none" d="m 542.0944,44.9203 -0.924,0 -1.816,1.591 c -0.062,0.052 -0.093,0.139 -0.093,0.26 0,0.232 0.153,0.348 0.459,0.348 l 1.084,0.008 c 0.361,0 0.541,0.139 0.541,0.415 l 0,0.476 c 0,0.29 -0.204,0.435 -0.611,0.435 l -1.533,0 0,-3.533 -0.741,0 0,4.138 2.49,0 c 0.757,0 1.136,-0.294 1.136,-0.882 l 0,-0.717 c 0,-0.257 -0.098,-0.464 -0.294,-0.621 -0.196,-0.157 -0.455,-0.236 -0.775,-0.236 l -0.854,0 1.931,-1.682 z"/><path inkscape:connector-curvature="0" id="path11554" style="fill:#676c70;fill-opacity:1;fill-rule:nonzero;stroke:none" d="m 548.2756,44.8996 -0.709,0 0,3.26 -1.307,-2.904 c -0.127,-0.284 -0.305,-0.427 -0.533,-0.427 -0.137,0 -0.249,0.042 -0.335,0.125 -0.053,0.055 -0.108,0.147 -0.169,0.277 l -1.338,2.929 0,-3.26 -0.708,0 0,3.607 c 0,0.158 0.056,0.289 0.168,0.391 0.112,0.104 0.267,0.156 0.466,0.156 0.301,0 0.507,-0.129 0.619,-0.385 l 1.29,-2.936 1.312,2.94 c 0.116,0.26 0.32,0.39 0.611,0.39 0.203,0 0.36,-0.053 0.469,-0.16 0.11,-0.106 0.164,-0.243 0.164,-0.408 l 0,-3.595 z"/><path inkscape:connector-curvature="0" id="path11558" style="fill:#676c70;fill-opacity:1;fill-rule:nonzero;stroke:none" d="m 552.0646,46.5029 -0.809,1.842 -0.734,-1.842 1.543,0 z m 1.472,-1.583 -0.794,0 -0.443,1.015 -2.013,0 -0.443,-1.015 -0.795,0 1.656,3.766 c 0.111,0.248 0.307,0.372 0.589,0.372 0.281,0 0.477,-0.124 0.589,-0.372 l 1.654,-3.766 z"/><path inkscape:connector-curvature="0" id="path11562" style="fill:#676c70;fill-opacity:1;fill-rule:nonzero;stroke:none" d="m 556.8373,48.4702 -1.267,0 0,-3.55 -0.742,0 0,3.55 -1.26,0 0,0.604 3.269,0 0,-0.604 z"/><path inkscape:connector-curvature="0" d="m 558.408,44.92 -0.742,0 0,4.154 0.742,0 0,-4.154 z" style="fill:#676c70;fill-opacity:1;fill-rule:nonzero;stroke:none" id="path11564"/><path inkscape:connector-curvature="0" id="path11568" style="fill:#676c70;fill-opacity:1;fill-rule:nonzero;stroke:none" d="m 562.4351,46.0094 0,1.93 c 0,0.194 -0.051,0.328 -0.153,0.404 -0.101,0.076 -0.269,0.114 -0.503,0.114 l -0.779,0 c -0.239,0 -0.409,-0.038 -0.511,-0.114 -0.101,-0.076 -0.153,-0.21 -0.153,-0.404 l 0,-1.913 c 0,-0.171 0.057,-0.303 0.169,-0.393 0.091,-0.073 0.256,-0.108 0.495,-0.108 l 0.779,0 c 0.229,0 0.395,0.035 0.5,0.108 0.104,0.071 0.156,0.197 0.156,0.376 m 0.731,-0.149 c 0,-0.626 -0.407,-0.94 -1.22,-0.94 l -1.121,0 c -0.393,0 -0.686,0.069 -0.88,0.207 -0.234,0.166 -0.35,0.407 -0.35,0.725 l 0,2.262 c 0,0.314 0.119,0.558 0.358,0.732 0.188,0.144 0.479,0.216 0.872,0.216 l 1.129,0 c 0.808,0 1.212,-0.317 1.212,-0.948 l 0,-2.254 z"/><path inkscape:connector-curvature="0" id="path11572" style="fill:#676c70;fill-opacity:1;fill-rule:nonzero;stroke:none" d="m 568.0356,45.4174 c 0,-0.157 -0.051,-0.287 -0.153,-0.389 -0.112,-0.116 -0.262,-0.175 -0.451,-0.175 -0.177,0 -0.313,0.045 -0.41,0.133 -0.042,0.039 -0.116,0.15 -0.223,0.336 l -1.726,2.919 0,-3.329 -0.708,0 0,3.545 c 0,0.403 0.201,0.605 0.603,0.605 0.184,0 0.323,-0.043 0.418,-0.129 0.051,-0.047 0.129,-0.158 0.231,-0.335 l 1.71,-2.916 0,3.342 0.709,0 0,-3.607 z"/><path inkscape:connector-curvature="0" id="path11576" style="fill:#676c70;fill-opacity:1;fill-rule:nonzero;stroke:none" d="m 508.385,36.2622 c 0,-0.32 -0.095,-0.561 -0.284,-0.725 -0.204,-0.184 -0.478,-0.277 -0.823,-0.277 l -1.29,0 c -0.402,0 -0.708,0.079 -0.917,0.236 -0.142,0.105 -0.237,0.232 -0.283,0.381 -0.025,0.086 -0.037,0.235 -0.037,0.447 l 0,2.1 c 0,0.194 0.019,0.341 0.059,0.443 0.058,0.13 0.164,0.244 0.32,0.344 0.199,0.127 0.485,0.19 0.858,0.19 l 2.128,0 0,-0.596 -1.975,0 c -0.234,0 -0.397,-0.031 -0.489,-0.095 -0.106,-0.071 -0.16,-0.199 -0.16,-0.381 l 0,-1.981 c 0,-0.184 0.058,-0.317 0.176,-0.397 0.091,-0.061 0.244,-0.09 0.458,-0.09 l 0.962,0 c 0.375,0 0.562,0.155 0.562,0.463 l 0,1.226 0.735,0 0,-1.288 z"/><path inkscape:connector-curvature="0" id="path11580" style="fill:#676c70;fill-opacity:1;fill-rule:nonzero;stroke:none" d="m 512.978,40.4868 -0.566,-0.741 -0.552,0 0.499,0.741 0.619,0 z m 0.838,-5.226 -2.116,0 c -0.366,0 -0.651,0.071 -0.854,0.214 -0.224,0.156 -0.335,0.379 -0.335,0.672 l 0,2.34 c 0,0.289 0.099,0.516 0.298,0.679 0.198,0.162 0.473,0.244 0.823,0.244 l 2.184,0 0,-0.6 -1.923,0 c -0.427,0 -0.641,-0.158 -0.641,-0.473 l 0,-0.704 2.564,0 0,-0.596 -2.564,0 0,-0.7 c 0,-0.312 0.217,-0.468 0.648,-0.468 l 1.916,0 0,-0.608 z"/><path inkscape:connector-curvature="0" id="path11584" style="fill:#676c70;fill-opacity:1;fill-rule:nonzero;stroke:none" d="m 518.7153,36.3486 0,1.931 c 0,0.193 -0.051,0.328 -0.153,0.404 -0.102,0.075 -0.269,0.114 -0.503,0.114 l -0.779,0 c -0.239,0 -0.409,-0.039 -0.511,-0.114 -0.101,-0.076 -0.153,-0.211 -0.153,-0.404 l 0,-1.914 c 0,-0.171 0.057,-0.302 0.168,-0.393 0.092,-0.072 0.257,-0.108 0.496,-0.108 l 0.779,0 c 0.229,0 0.395,0.036 0.5,0.108 0.104,0.071 0.156,0.197 0.156,0.376 m 0.731,-0.148 c 0,-0.627 -0.407,-0.94 -1.22,-0.94 l -1.121,0 c -0.393,0 -0.686,0.069 -0.88,0.206 -0.234,0.167 -0.35,0.408 -0.35,0.726 l 0,2.261 c 0,0.314 0.119,0.559 0.358,0.733 0.188,0.143 0.479,0.215 0.872,0.215 l 1.129,0 c 0.808,0 1.212,-0.316 1.212,-0.948 l 0,-2.253 z"/><path inkscape:connector-curvature="0" id="path11588" style="fill:#676c70;fill-opacity:1;fill-rule:nonzero;stroke:none" d="m 525.2094,36.2622 c 0,-0.32 -0.095,-0.561 -0.283,-0.725 -0.204,-0.184 -0.479,-0.277 -0.824,-0.277 l -1.29,0 c -0.402,0 -0.708,0.079 -0.917,0.236 -0.142,0.105 -0.236,0.232 -0.283,0.381 -0.025,0.086 -0.037,0.235 -0.037,0.447 l 0,2.1 c 0,0.194 0.019,0.341 0.06,0.443 0.057,0.13 0.163,0.244 0.32,0.344 0.198,0.127 0.484,0.19 0.857,0.19 l 2.128,0 0,-0.596 -1.975,0 c -0.234,0 -0.396,-0.031 -0.489,-0.095 -0.106,-0.071 -0.16,-0.199 -0.16,-0.381 l 0,-1.981 c 0,-0.184 0.059,-0.317 0.176,-0.397 0.091,-0.061 0.244,-0.09 0.458,-0.09 l 0.962,0 c 0.375,0 0.563,0.155 0.563,0.463 l 0,1.226 0.734,0 0,-1.288 z"/><path inkscape:connector-curvature="0" id="path11592" style="fill:#676c70;fill-opacity:1;fill-rule:nonzero;stroke:none" d="m 530.969,35.2605 -0.924,0 -1.815,1.591 c -0.063,0.051 -0.094,0.138 -0.094,0.26 0,0.231 0.153,0.348 0.459,0.348 l 1.085,0.008 c 0.36,0 0.54,0.138 0.54,0.414 l 0,0.476 c 0,0.29 -0.203,0.435 -0.611,0.435 l -1.532,0 0,-3.532 -0.742,0 0,4.137 2.49,0 c 0.758,0 1.137,-0.294 1.137,-0.882 l 0,-0.716 c 0,-0.257 -0.098,-0.465 -0.295,-0.621 -0.196,-0.158 -0.454,-0.236 -0.775,-0.236 l -0.854,0 1.931,-1.682 z"/><path inkscape:connector-curvature="0" id="path11596" style="fill:#676c70;fill-opacity:1;fill-rule:nonzero;stroke:none" d="m 535.5817,36.8426 -0.81,1.843 -0.734,-1.843 1.544,0 z m 1.472,-1.582 -0.794,0 -0.444,1.014 -2.012,0 -0.444,-1.014 -0.794,0 1.655,3.765 c 0.112,0.248 0.308,0.372 0.589,0.372 0.28,0 0.477,-0.124 0.589,-0.372 l 1.655,-3.765 z"/><path inkscape:connector-curvature="0" id="path11600" style="fill:#676c70;fill-opacity:1;fill-rule:nonzero;stroke:none" d="m 541.6689,37.902 0,0.493 c 0,0.279 -0.197,0.419 -0.592,0.419 l -1.581,0 0,-1.379 1.562,0 c 0.408,0 0.611,0.155 0.611,0.467 m 0.742,-0.194 c 0,-0.277 -0.098,-0.494 -0.294,-0.653 -0.196,-0.158 -0.465,-0.237 -0.805,-0.237 l -1.816,0 0,-1.558 -0.742,0 0,4.154 2.521,0 c 0.325,0 0.59,-0.067 0.793,-0.203 0.218,-0.148 0.33,-0.353 0.335,-0.613 0.006,-0.278 0.008,-0.575 0.008,-0.89"/><path inkscape:connector-curvature="0" id="path11604" style="fill:#676c70;fill-opacity:1;fill-rule:nonzero;stroke:none" d="m 548.2083,35.2605 -0.738,0 0,1.768 -2.229,0 0,-1.768 -0.742,0 0,4.141 0.742,0 0,-1.777 2.229,0 0,1.777 0.738,0 0,-4.141 z"/><path inkscape:connector-curvature="0" d="m 551.071,35.26 -0.742,0 0,4.154 0.742,0 0,-4.154 z" style="fill:#676c70;fill-opacity:1;fill-rule:nonzero;stroke:none" id="path11606"/><path inkscape:connector-curvature="0" id="path11610" style="fill:#676c70;fill-opacity:1;fill-rule:nonzero;stroke:none" d="m 556.0598,36.3078 0,1.997 c 0,0.19 -0.054,0.319 -0.161,0.389 -0.106,0.068 -0.279,0.103 -0.517,0.103 l -0.78,0 c -0.233,0 -0.403,-0.035 -0.51,-0.103 -0.107,-0.07 -0.16,-0.199 -0.16,-0.389 l 0,-1.973 c 0,-0.189 0.056,-0.318 0.167,-0.384 0.097,-0.066 0.265,-0.1 0.503,-0.1 l 0.78,0 c 0.233,0 0.405,0.032 0.514,0.096 0.109,0.064 0.164,0.184 0.164,0.364 m 0.741,-0.137 c 0,-0.488 -0.251,-0.785 -0.756,-0.89 l 0.734,-0.633 -1.01,0 -0.723,0.604 -0.626,0 c -0.388,0 -0.679,0.06 -0.872,0.178 -0.239,0.166 -0.358,0.413 -0.358,0.741 l 0,2.295 c 0,0.342 0.119,0.593 0.358,0.75 0.199,0.127 0.489,0.19 0.872,0.19 l 1.152,0 c 0.383,0 0.672,-0.063 0.869,-0.19 0.24,-0.157 0.36,-0.408 0.36,-0.75 l 0,-2.295 z"/><path inkscape:connector-curvature="0" id="path11614" style="fill:#676c70;fill-opacity:1;fill-rule:nonzero;stroke:none" d="m 562.5989,36.3035 c 0,-0.187 -0.017,-0.331 -0.053,-0.43 -0.047,-0.136 -0.138,-0.258 -0.272,-0.369 -0.134,-0.11 -0.275,-0.183 -0.424,-0.215 -0.103,-0.02 -0.27,-0.029 -0.504,-0.029 l -1.159,0 c -0.224,0 -0.389,0.012 -0.496,0.037 -0.159,0.033 -0.302,0.102 -0.428,0.207 -0.142,0.118 -0.237,0.241 -0.284,0.369 -0.03,0.088 -0.044,0.231 -0.044,0.43 l 0,3.098 0.741,0 0,-2.986 c 0,-0.215 0.051,-0.361 0.153,-0.437 0.103,-0.076 0.287,-0.114 0.556,-0.114 l 0.764,0 c 0.263,0 0.447,0.037 0.552,0.11 0.104,0.073 0.156,0.215 0.156,0.424 l 0,3.003 0.742,0 0,-3.098 z"/><path inkscape:connector-curvature="0" id="path11618" style="fill:#676c70;fill-opacity:1;fill-rule:nonzero;stroke:none" d="m 567.8813,37.0286 -2.419,0 0,-0.701 c 0,-0.308 0.216,-0.463 0.649,-0.463 l 1.916,0 0,-0.604 -2.118,0 c -0.365,0 -0.65,0.07 -0.853,0.21 -0.224,0.158 -0.336,0.38 -0.336,0.668 l 0,2.331 c 0,0.287 0.1,0.513 0.298,0.678 0.199,0.164 0.474,0.246 0.824,0.246 l 2.185,0 0,-0.605 -1.924,0 c -0.427,0 -0.641,-0.152 -0.641,-0.455 l 0,-0.709 2.419,0 0,-0.596 z"/><path inkscape:connector-curvature="0" id="path11622" style="fill:#676c70;fill-opacity:1;fill-rule:nonzero;stroke:none" d="m 507.9114,27.3683 -2.42,0 0,-0.7 c 0,-0.309 0.217,-0.463 0.649,-0.463 l 1.916,0 0,-0.605 -2.116,0 c -0.366,0 -0.651,0.07 -0.854,0.211 -0.224,0.157 -0.336,0.379 -0.336,0.667 l 0,2.332 c 0,0.287 0.1,0.513 0.298,0.677 0.199,0.164 0.474,0.246 0.824,0.246 l 2.184,0 0,-0.605 -1.923,0 c -0.427,0 -0.642,-0.152 -0.642,-0.455 l 0,-0.709 2.42,0 0,-0.596 z"/><path inkscape:connector-curvature="0" id="path11626" style="fill:#676c70;fill-opacity:1;fill-rule:nonzero;stroke:none" d="m 513.2306,29.1491 -1.267,0 0,-3.549 -0.742,0 0,3.549 -1.26,0 0,0.605 3.269,0 0,-0.605 z"/><path inkscape:connector-curvature="0" id="path11630" style="fill:#676c70;fill-opacity:1;fill-rule:nonzero;stroke:none" d="m 521.8234,27.364 -2.572,0 0,-1.764 -0.742,0 0,3.293 c 0,0.268 0.114,0.484 0.344,0.65 0.183,0.127 0.455,0.19 0.815,0.19 l 2.155,0 0,-0.605 -1.953,0 c -0.412,0 -0.619,-0.142 -0.619,-0.426 l 0,-0.742 2.572,0 0,-0.596 z"/><path inkscape:connector-curvature="0" id="path11634" style="fill:#676c70;fill-opacity:1;fill-rule:nonzero;stroke:none" d="m 526.8745,26.6894 0,1.93 c 0,0.193 -0.051,0.328 -0.153,0.404 -0.102,0.076 -0.269,0.114 -0.503,0.114 l -0.779,0 c -0.239,0 -0.409,-0.038 -0.511,-0.114 -0.102,-0.076 -0.153,-0.211 -0.153,-0.404 l 0,-1.914 c 0,-0.17 0.056,-0.302 0.168,-0.393 0.092,-0.072 0.257,-0.107 0.496,-0.107 l 0.779,0 c 0.229,0 0.395,0.035 0.5,0.107 0.104,0.072 0.156,0.197 0.156,0.377 m 0.731,-0.148 c 0,-0.628 -0.406,-0.941 -1.219,-0.941 l -1.123,0 c -0.392,0 -0.685,0.069 -0.879,0.207 -0.233,0.165 -0.35,0.407 -0.35,0.725 l 0,2.261 c 0,0.314 0.119,0.559 0.358,0.733 0.189,0.144 0.479,0.215 0.871,0.215 l 1.13,0 c 0.808,0 1.212,-0.316 1.212,-0.948 l 0,-2.252 z"/><path inkscape:connector-curvature="0" id="path11638" style="fill:#676c70;fill-opacity:1;fill-rule:nonzero;stroke:none" d="m 533.3458,25.6002 -0.924,0 -1.815,1.591 c -0.063,0.051 -0.094,0.139 -0.094,0.26 0,0.232 0.153,0.348 0.458,0.348 l 1.086,0.008 c 0.359,0 0.54,0.138 0.54,0.414 l 0,0.477 c 0,0.29 -0.204,0.434 -0.612,0.434 l -1.531,0 0,-3.532 -0.742,0 0,4.137 2.49,0 c 0.758,0 1.137,-0.294 1.137,-0.882 l 0,-0.716 c 0,-0.257 -0.099,-0.465 -0.295,-0.621 -0.196,-0.158 -0.455,-0.236 -0.775,-0.236 l -0.854,0 1.931,-1.682 z"/><path inkscape:connector-curvature="0" id="path11642" style="fill:#676c70;fill-opacity:1;fill-rule:nonzero;stroke:none" d="m 538.4977,27.3683 -2.419,0 0,-0.7 c 0,-0.309 0.217,-0.463 0.648,-0.463 l 1.916,0 0,-0.605 -2.117,0 c -0.365,0 -0.65,0.07 -0.853,0.211 -0.224,0.157 -0.336,0.379 -0.336,0.667 l 0,2.332 c 0,0.287 0.1,0.513 0.298,0.677 0.199,0.164 0.473,0.246 0.824,0.246 l 2.184,0 0,-0.605 -1.923,0 c -0.427,0 -0.641,-0.152 -0.641,-0.455 l 0,-0.709 2.419,0 0,-0.596 z"/><path inkscape:connector-curvature="0" id="path11646" style="fill:#676c70;fill-opacity:1;fill-rule:nonzero;stroke:none" d="m 544.0824,29.1369 -1.901,0 c -0.311,0 -0.505,-0.064 -0.582,-0.19 -0.045,-0.077 -0.068,-0.253 -0.068,-0.527 0,-0.143 0.059,-0.254 0.176,-0.335 0.097,-0.063 0.254,-0.095 0.474,-0.095 l 0.786,0 c 0.336,0 0.604,-0.075 0.805,-0.224 0.201,-0.149 0.302,-0.359 0.302,-0.629 l 0,-0.655 c 0,-0.284 -0.103,-0.502 -0.309,-0.654 -0.207,-0.151 -0.489,-0.228 -0.847,-0.228 l -2.121,0 0,0.605 1.901,0 c 0.316,0 0.512,0.069 0.589,0.207 0.035,0.071 0.053,0.258 0.053,0.559 0,0.282 -0.207,0.423 -0.619,0.423 l -0.786,0 c -0.326,0 -0.594,0.069 -0.802,0.207 -0.229,0.152 -0.343,0.358 -0.343,0.621 l 0,0.646 c 0,0.29 0.124,0.52 0.373,0.691 0.174,0.122 0.426,0.183 0.757,0.183 l 2.162,0 0,-0.605 z"/><path inkscape:connector-curvature="0" id="path11650" style="fill:#676c70;fill-opacity:1;fill-rule:nonzero;stroke:none" d="m 549.1586,29.1491 -1.267,0 0,-3.549 -0.742,0 0,3.549 -1.26,0 0,0.605 3.269,0 0,-0.605 z"/><path inkscape:connector-curvature="0" d="m 551.638,25.6 -0.741,0 0,4.154 0.741,0 0,-4.154 z" style="fill:#676c70;fill-opacity:1;fill-rule:nonzero;stroke:none" id="path11652"/><path inkscape:connector-curvature="0" id="path11656" style="fill:#676c70;fill-opacity:1;fill-rule:nonzero;stroke:none" d="m 556.2007,30.0734 -0.552,0 -0.566,0.741 0.619,0 0.499,-0.741 z m 0.839,-4.473 -2.118,0 c -0.364,0 -0.649,0.072 -0.853,0.215 -0.224,0.155 -0.336,0.375 -0.336,0.662 l 0,2.345 c 0,0.284 0.1,0.51 0.299,0.675 0.199,0.166 0.473,0.248 0.823,0.248 l 2.185,0 0,-0.613 -1.923,0 c -0.428,0 -0.642,-0.154 -0.642,-0.463 l 0,-0.701 2.565,0 0,-0.6 -2.565,0 0,-0.7 c 0,-0.312 0.217,-0.468 0.649,-0.468 l 1.916,0 0,-0.6 z"/><path inkscape:connector-curvature="0" id="path11660" style="fill:#676c70;fill-opacity:1;fill-rule:nonzero;stroke:none" d="m 562.7097,25.6002 -0.925,0 -1.815,1.591 c -0.062,0.051 -0.093,0.139 -0.093,0.26 0,0.232 0.152,0.348 0.458,0.348 l 1.086,0.008 c 0.359,0 0.54,0.138 0.54,0.414 l 0,0.477 c 0,0.29 -0.204,0.434 -0.612,0.434 l -1.531,0 0,-3.532 -0.742,0 0,4.137 2.49,0 c 0.757,0 1.137,-0.294 1.137,-0.882 l 0,-0.716 c 0,-0.257 -0.099,-0.465 -0.296,-0.621 -0.196,-0.158 -0.454,-0.236 -0.775,-0.236 l -0.853,0 1.931,-1.682 z"/><path inkscape:connector-curvature="0" id="path11664" style="fill:#676c70;fill-opacity:1;fill-rule:nonzero;stroke:none" d="m 567.8607,27.3683 -2.419,0 0,-0.7 c 0,-0.309 0.217,-0.463 0.649,-0.463 l 1.916,0 0,-0.605 -2.118,0 c -0.365,0 -0.649,0.07 -0.853,0.211 -0.224,0.157 -0.335,0.379 -0.335,0.667 l 0,2.332 c 0,0.287 0.099,0.513 0.297,0.677 0.199,0.164 0.474,0.246 0.825,0.246 l 2.184,0 0,-0.605 -1.924,0 c -0.427,0 -0.641,-0.152 -0.641,-0.455 l 0,-0.709 2.419,0 0,-0.596 z"/><path inkscape:connector-curvature="0" id="path16847" style="fill:#676c70;fill-opacity:1;fill-rule:nonzero;stroke:none" d="m 505.4925,54.58 -0.742,0 0,4.154 0.742,0 0,-4.154 z"/></g></g></svg>