<?xml version="1.0" encoding="UTF-8" standalone="no"?>
<!-- Created with Inkscape (http://www.inkscape.org/) -->

<svg
   xmlns:dc="http://purl.org/dc/elements/1.1/"
   xmlns:cc="http://creativecommons.org/ns#"
   xmlns:rdf="http://www.w3.org/1999/02/22-rdf-syntax-ns#"
   xmlns:svg="http://www.w3.org/2000/svg"
   xmlns="http://www.w3.org/2000/svg"
   xmlns:sodipodi="http://sodipodi.sourceforge.net/DTD/sodipodi-0.dtd"
   xmlns:inkscape="http://www.inkscape.org/namespaces/inkscape"
   width="210mm"
   height="297mm"
   viewBox="0 0 210 297"
   version="1.1"
   id="svg8"
   inkscape:version="0.92.4 (f8dce91, 2019-08-02)"
   sodipodi:docname="vegetation.svg"
   inkscape:export-filename="/home/gpetit/Documents/Codes/geoclimate/docs/images/icons/vegetation.png"
   inkscape:export-xdpi="5.9708452"
   inkscape:export-ydpi="5.9708452">
  <defs
     id="defs2">
    <clipPath
       id="clipPath23"
       clipPathUnits="userSpaceOnUse">
      <rect
         y="110.36194"
         x="6.7847877"
         width="263.84616"
         transform="rotate(90)"
         style="opacity:1;fill:none;fill-opacity:1;stroke:#000000;stroke-width:1.5;stroke-linecap:round;stroke-linejoin:round;stroke-miterlimit:4;stroke-dasharray:none;stroke-dashoffset:0;stroke-opacity:0.97641512"
         id="rect25"
         height="170.00711" />
    </clipPath>
    <clipPath
       id="clipPath23-9"
       clipPathUnits="userSpaceOnUse">
      <rect
         y="110.36194"
         x="6.7847877"
         width="263.84616"
         transform="rotate(90)"
         style="opacity:1;fill:none;fill-opacity:1;stroke:#000000;stroke-width:1.5;stroke-linecap:round;stroke-linejoin:round;stroke-miterlimit:4;stroke-dasharray:none;stroke-dashoffset:0;stroke-opacity:0.97641512"
         id="rect25-1"
         height="170.00711" />
    </clipPath>
  </defs>
  <sodipodi:namedview
     id="base"
     pagecolor="#ffffff"
     bordercolor="#666666"
     borderopacity="1.0"
     inkscape:pageopacity="0.0"
     inkscape:pageshadow="2"
     inkscape:zoom="0.49497475"
     inkscape:cx="557.05816"
     inkscape:cy="999.58122"
     inkscape:document-units="mm"
     inkscape:current-layer="layer1"
     showgrid="false"
     inkscape:window-width="1920"
     inkscape:window-height="1163"
     inkscape:window-x="1920"
     inkscape:window-y="0"
     inkscape:window-maximized="1" />
  <metadata
     id="metadata5">
    <rdf:RDF>
      <cc:Work
         rdf:about="">
        <dc:format>image/svg+xml</dc:format>
        <dc:type
           rdf:resource="http://purl.org/dc/dcmitype/StillImage" />
        <dc:title></dc:title>
      </cc:Work>
    </rdf:RDF>
  </metadata>
  <g
     inkscape:label="Calque 1"
     inkscape:groupmode="layer"
     id="layer1">
    <g
       id="g992"
       transform="matrix(3.4635176,0,0,3.4635176,80.111953,88.683532)"
       style="stroke-width:0.15101847;stroke-miterlimit:4;stroke-dasharray:none">
      <path
         id="path976"
         d="m 8.907,5.489 c 0,0 0.458,-3.277 3.333,-2.826 0,0 2.562,-3.894 5.458,-0.716 0,0 2.572,-0.5 3.182,2.375 0,0 2.61,-0.625 3.443,3.042 0,0 2.167,1.875 0,4.125 0,0 0.447,4.625 -3.443,2.5 0,0 -0.682,4.033 -3.64,0.558 C 14.282,11.072 12.615,15 12.615,15 c 0,0 -2.292,2.947 -3.708,0.531 l 0.25,-1.333 c 0,0 -4.25,3.328 -3.542,-2.125 0,0 -2.667,-3.042 0.125,-4.042 0,0 0.5,-4.292 3.167,-2.542 z"
         class="st0"
         inkscape:connector-curvature="0"
         style="fill:#39b54a;stroke-width:0.15101847;stroke-miterlimit:4;stroke-dasharray:none" />
      <path
         id="path978"
         d="m 17.219,14.76 c 0,0 -1.469,4.094 -1.313,6.906 0.156,2.813 1.313,7.259 1.313,7.259 l -4.781,0.4 0.75,-2.597 c 0,0 0.844,-3.344 0.844,-3.906 0,-0.562 -0.75,-5.688 -0.75,-5.938 0,-0.25 -0.548,-2.125 -0.548,-2.125 l 0.985,-1 0.625,0.844 0.344,0.75 0.344,0.188 0.938,-1.188 0.75,-0.594 z"
         class="st1"
         inkscape:connector-curvature="0"
         style="fill:#5b4531;stroke-width:0.15101847;stroke-miterlimit:4;stroke-dasharray:none" />
      <path
         id="path980"
         d="m 16.907,3.197 c 0,0 2.625,-1.042 3.25,3.542 0,0 1.417,-0.208 1.542,1.083 0,0 2.375,2 -0.167,2.958 0,0 1.375,2.875 -2.25,1.458 0,0 0.5,1.5 -0.583,1 L 17.656,15 c 0,0 1.418,2.386 3.168,0 l 0.057,-1.011 c 0,0 2.693,2.333 3.526,-1.25 l -0.083,-1.25 c 0,0 2.125,-2.583 0,-4.125 0,0 -0.261,-3.292 -3.443,-3.042 0,0 -1.765,-3.792 -3.182,-2.375 0,0 -3.458,-3 -5.458,0.417 -10e-4,0 -0.417,3.917 4.666,0.833 z"
         class="st2"
         inkscape:connector-curvature="0"
         style="fill:#009245;stroke-width:0.15101847;stroke-miterlimit:4;stroke-dasharray:none" />
      <path
         id="path982"
         d="m 17.196,13.76 c 0,0 -4.049,5.693 -0.556,15.565 h 0.768 c 0,0 -1.115,-4.382 -1.247,-5.884 -0.101,-1.15 -0.022,-3.479 0.153,-4.619 0.161,-1.05 0.97,-4.126 0.97,-4.126 z"
         class="st3"
         inkscape:connector-curvature="0"
         style="fill:#6b6256;stroke-width:0.15101847;stroke-miterlimit:4;stroke-dasharray:none" />
      <g
         id="g990"
         style="stroke-width:0.15101847;stroke-miterlimit:4;stroke-dasharray:none">
        <path
           id="path988"
           d="M 25.708,9.251 C 25.667,8.389 25.263,7.608 24.614,7.05 24.536,6.133 24.134,5.277 23.48,4.689 22.866,4.137 22.092,3.859 21.296,3.9 21.123,3.217 20.763,2.598 20.254,2.14 19.635,1.584 18.852,1.309 18.051,1.349 17.929,1.357 17.811,1.387 17.692,1.409 16.994,0.633 15.989,0.206 14.932,0.266 13.776,0.327 12.746,0.953 12.153,1.924 12.085,1.915 12.02,1.899 11.951,1.895 11.153,1.843 10.368,2.129 9.749,2.685 9.24,3.143 8.88,3.761 8.707,4.445 7.914,4.4 7.136,4.682 6.522,5.235 5.866,5.824 5.464,6.68 5.387,7.597 4.738,8.154 4.334,8.935 4.293,9.797 c -0.043,0.914 0.333,1.781 0.989,2.415 -0.088,0.251 -0.153,0.511 -0.166,0.785 -0.068,1.427 0.947,2.65 2.263,2.727 0.043,0.002 0.086,0.004 0.13,0.004 0.403,0 0.781,-0.126 1.123,-0.324 0.2,0.826 0.971,1.475 1.928,1.53 0.04,0.002 0.079,0.003 0.118,0.003 0.702,0 1.329,-0.383 1.834,-1.095 0.662,1.884 1.028,4.045 1.028,6.323 0,2.461 -0.415,4.791 -1.184,6.773 H 10.57 c -0.221,0 -0.4,0.18 -0.4,0.4 0,0.22 0.179,0.4 0.4,0.4 h 8.379 c 0.221,0 0.4,-0.18 0.4,-0.4 0,-0.22 -0.18,-0.4 -0.4,-0.4 h -1.302 c -0.843,-2.024 -1.316,-4.528 -1.316,-7.101 0,-2.387 0.395,-4.649 1.12,-6.593 0.441,0.729 1.111,1.146 1.868,1.146 0.041,0 0.082,-0.001 0.124,-0.004 0.956,-0.055 1.728,-0.704 1.928,-1.53 0.341,0.198 0.719,0.324 1.121,0.324 0.044,0 0.088,-10e-4 0.132,-0.004 1.314,-0.076 2.33,-1.299 2.262,-2.727 -0.013,-0.275 -0.078,-0.534 -0.165,-0.784 0.654,-0.633 1.03,-1.5 0.987,-2.414 z M 15.53,21.838 c 0,2.59 0.448,5.02 1.265,7.101 h -3.596 c 0.735,-2.011 1.139,-4.329 1.139,-6.773 0,-2.58 -0.437,-5.035 -1.255,-7.12 0.185,-0.237 0.371,-0.452 0.558,-0.632 l 1.029,1.822 c 0.071,0.126 0.195,0.182 0.348,0.203 0.142,0 0.274,-0.075 0.346,-0.198 l 1.211,-2.079 c 0.115,0.099 0.221,0.208 0.322,0.32 -0.024,0.03 -0.048,0.059 -0.063,0.096 -0.853,2.113 -1.304,4.624 -1.304,7.26 z m -1.254,-7.926 c 0.354,-0.218 0.699,-0.328 1.019,-0.317 0.208,0.005 0.409,0.057 0.603,0.138 l -0.875,1.502 z m 9.817,-2.747 c -0.009,0.004 -0.019,0.003 -0.028,0.008 -0.093,0.046 -0.157,0.126 -0.192,0.216 -0.103,0.139 -0.114,0.33 -0.005,0.476 0.03,0.04 0.07,0.065 0.109,0.09 0.057,0.171 0.1,0.347 0.109,0.534 0.047,0.991 -0.63,1.839 -1.51,1.89 -0.638,0.041 -1.232,-0.357 -1.513,-1.005 -10e-4,-0.002 -0.003,-0.003 -0.003,-0.005 -0.01,-0.013 -0.014,-0.029 -0.024,-0.042 -0.004,-0.005 -0.01,-0.007 -0.014,-0.012 -0.106,-0.158 -0.308,-0.227 -0.485,-0.149 -0.203,0.088 -0.296,0.323 -0.208,0.526 0.024,0.056 0.064,0.098 0.092,0.152 0.124,0.164 0.197,0.353 0.206,0.551 0.029,0.617 -0.522,1.153 -1.231,1.194 -0.75,0.038 -1.153,-0.549 -1.298,-0.804 -0.533,-0.942 -1.544,-1.96 -2.783,-1.989 -1.191,-0.031 -2.326,0.818 -3.396,2.512 0,0 0,0 0,0 -0.382,0.578 -0.811,0.852 -1.313,0.828 C 9.898,16.095 9.345,15.559 9.375,14.942 9.384,14.743 9.458,14.554 9.582,14.39 9.609,14.337 9.649,14.295 9.673,14.24 9.761,14.037 9.669,13.802 9.466,13.714 9.285,13.633 9.087,13.704 8.982,13.86 8.977,13.866 8.97,13.868 8.966,13.874 8.95,13.894 8.944,13.919 8.928,13.94 8.643,14.575 8.06,14.971 7.426,14.926 6.546,14.875 5.869,14.027 5.916,13.037 5.925,12.85 5.968,12.673 6.025,12.502 6.064,12.477 6.104,12.452 6.133,12.412 6.241,12.268 6.232,12.079 6.132,11.941 6.098,11.848 6.032,11.767 5.936,11.72 5.926,11.715 5.916,11.716 5.906,11.712 5.368,11.233 5.059,10.553 5.093,9.837 5.114,9.406 5.264,9.005 5.5,8.658 c 0.074,0.1 0.174,0.175 0.303,0.175 0.02,0 0.041,-10e-4 0.061,-0.004 C 6.081,8.793 6.23,8.589 6.197,8.371 6.173,8.215 6.171,8.055 6.172,7.896 6.205,7.812 6.212,7.722 6.185,7.634 6.253,6.93 6.559,6.277 7.056,5.83 7.493,5.437 8.037,5.238 8.595,5.248 8.59,5.418 8.592,5.588 8.608,5.753 8.63,5.958 8.803,6.111 9.006,6.111 c 0.014,0 0.027,0 0.042,-0.002 C 9.267,6.087 9.427,5.89 9.405,5.67 9.39,5.524 9.385,5.375 9.393,5.222 9.429,4.464 9.754,3.757 10.284,3.28 10.742,2.868 11.32,2.659 11.905,2.694 c 0.033,0.002 0.065,0.01 0.097,0.014 0.038,0.049 0.085,0.093 0.146,0.121 0.054,0.024 0.11,0.036 0.166,0.036 0.152,0 0.297,-0.087 0.364,-0.234 0.415,-0.913 1.295,-1.513 2.295,-1.565 0.916,-0.05 1.791,0.373 2.325,1.127 0.033,0.048 0.065,0.097 0.096,0.146 0.076,0.124 0.207,0.191 0.342,0.191 0.071,0 0.144,-0.019 0.208,-0.059 0.118,-0.072 0.178,-0.195 0.184,-0.323 0.58,-0.026 1.14,0.181 1.59,0.585 0.529,0.477 0.854,1.185 0.891,1.941 0.007,0.153 0.002,0.303 -0.013,0.45 -0.021,0.22 0.139,0.416 0.358,0.438 0.014,10e-4 0.027,0.002 0.041,0.002 0.202,0 0.376,-0.154 0.397,-0.36 0.016,-0.164 0.018,-0.333 0.013,-0.504 0.554,-0.011 1.102,0.19 1.539,0.582 0.497,0.447 0.804,1.1 0.871,1.804 -0.027,0.087 -0.02,0.177 0.013,0.261 0.001,0.161 -0.002,0.322 -0.025,0.477 -0.033,0.218 0.117,0.422 0.336,0.455 0.021,0.003 0.04,0.004 0.061,0.004 0.129,0 0.229,-0.075 0.303,-0.175 0.235,0.347 0.385,0.748 0.406,1.179 0.034,0.718 -0.276,1.399 -0.816,1.878 z"
           inkscape:connector-curvature="0"
           style="stroke-width:0.15101847;stroke-miterlimit:4;stroke-dasharray:none" />
      </g>
    </g>
    <g
       id="g1015"
       transform="translate(-18.842502,5.8118389)">
      <path
         inkscape:connector-curvature="0"
         d="m 103.06559,154.31805 a 12.138201,12.564103 0 0 0 -11.977675,10.6251 7.2403303,7.0273802 0 0 0 -1.296709,-0.11974 7.2403303,7.0273802 0 0 0 -4.051518,1.21106 9.9377081,9.2988562 0 0 0 -8.299511,-4.19203 9.9377081,9.2988562 0 0 0 -9.937737,9.29866 9.9377081,9.2988562 0 0 0 1.464631,4.83657 h -1.682064 c -2.224565,0 -4.015271,1.79079 -4.015271,4.01534 0,2.22448 1.790706,4.01523 4.015271,4.01523 h 55.613273 c 2.22457,0 4.01638,-1.79075 4.01638,-4.01523 0,-2.22455 -1.79181,-4.01534 -4.01638,-4.01534 h -1.45592 a 6.0336088,5.3237725 0 0 0 0.14885,-1.14517 6.0336088,5.3237725 0 0 0 -6.03329,-5.32409 6.0336088,5.3237725 0 0 0 -0.63686,0.035 12.138201,12.564103 0 0 0 0.28199,-2.66259 12.138201,12.564103 0 0 0 -12.1381,-12.56412 z"
         id="path5013-0"
         style="opacity:1;fill:#39b54a;fill-opacity:1;stroke:#241f1c;stroke-width:1.93145835;stroke-linecap:round;stroke-linejoin:round;stroke-miterlimit:4;stroke-dasharray:none;stroke-dashoffset:0;stroke-opacity:1" />
      <path
         inkscape:connector-curvature="0"
         d="m 108.28234,165.66905 a 9.1359849,9.1339133 0 0 0 -9.136242,9.13395 9.1359849,9.1339133 0 0 0 0.212643,1.93575 4.5412793,3.8703026 0 0 0 -0.47942,-0.0233 4.5412793,3.8703026 0 0 0 -4.378705,2.86466 h -3.408125 c -1.345765,0 -2.428684,1.08289 -2.428684,2.42872 0,1.1964 0.857183,2.18098 1.992854,2.38588 0.291092,0.31139 0.70404,0.50934 1.165993,0.50934 h 43.725666 c 0.88478,0 1.59753,-0.71277 1.59753,-1.59755 0,-0.49561 -0.22831,-0.9317 -0.58082,-1.22424 -0.0876,-0.69375 -0.53253,-1.26936 -1.14408,-1.54479 -0.19643,-0.25618 -0.44094,-0.46945 -0.72247,-0.63027 a 7.4797532,6.7601294 0 0 0 0.35085,-2.00495 7.4797532,6.7601294 0 0 0 -7.4805,-6.7602 7.4797532,6.7601294 0 0 0 -6.24637,3.04687 5.4495353,5.1087989 0 0 0 -3.04904,-0.87946 5.4495353,5.1087989 0 0 0 -0.9761,0.0867 9.1359849,9.1339133 0 0 0 -9.01545,-7.72424 z"
         id="path5013-2-8"
         style="opacity:1;fill:#8bd35f;fill-opacity:1;stroke:#241f1c;stroke-width:1.93145835;stroke-linecap:round;stroke-linejoin:round;stroke-miterlimit:4;stroke-dasharray:none;stroke-dashoffset:0;stroke-opacity:1" />
    </g>
  </g>
  <style
     id="style974"
     type="text/css">
	.st0{fill:#39B54A;}
	.st1{fill:#5B4531;}
	.st2{fill:#009245;}
	.st3{fill:#6B6256;}
</style>
</svg>
