<?xml version="1.0" encoding="UTF-8" standalone="no"?>
<svg
   xmlns:dc="http://purl.org/dc/elements/1.1/"
   xmlns:cc="http://creativecommons.org/ns#"
   xmlns:rdf="http://www.w3.org/1999/02/22-rdf-syntax-ns#"
   xmlns:svg="http://www.w3.org/2000/svg"
   xmlns="http://www.w3.org/2000/svg"
   xmlns:sodipodi="http://sodipodi.sourceforge.net/DTD/sodipodi-0.dtd"
   xmlns:inkscape="http://www.inkscape.org/namespaces/inkscape"
   enable-background="new 0 0 64 64"
   height="64px"
   version="1.1"
   viewBox="0 0 64 64"
   width="64px"
   xml:space="preserve"
   id="svg24"
   sodipodi:docname="warning.svg"
   inkscape:version="0.92.4 (f8dce91, 2019-08-02)"
   inkscape:export-filename="/home/gpetit/Documents/Codes/geoclimate/docs/images/icons/warning.png"
   inkscape:export-xdpi="50.206669"
   inkscape:export-ydpi="50.206669"><metadata
     id="metadata30"><rdf:RDF><cc:Work
         rdf:about=""><dc:format>image/svg+xml</dc:format><dc:type
           rdf:resource="http://purl.org/dc/dcmitype/StillImage" /><dc:title></dc:title></cc:Work></rdf:RDF></metadata><defs
     id="defs28"><filter
       inkscape:collect="always"
       style="color-interpolation-filters:sRGB"
       id="filter873"
       x="-0.022761976"
       width="1.045524"
       y="-0.025380443"
       height="1.0507609"><feGaussianBlur
         inkscape:collect="always"
         stdDeviation="0.37908071"
         id="feGaussianBlur875" /></filter></defs><sodipodi:namedview
     pagecolor="#ffffff"
     bordercolor="#666666"
     borderopacity="1"
     objecttolerance="10"
     gridtolerance="10"
     guidetolerance="10"
     inkscape:pageopacity="0"
     inkscape:pageshadow="2"
     inkscape:window-width="1920"
     inkscape:window-height="1163"
     id="namedview26"
     showgrid="false"
     inkscape:zoom="7.375"
     inkscape:cx="24.973227"
     inkscape:cy="23.166965"
     inkscape:window-x="1920"
     inkscape:window-y="0"
     inkscape:window-maximized="1"
     inkscape:current-layer="svg24" /><g
     style="opacity:0.2;filter:url(#filter873)"
     id="g8"
     transform="translate(1.1864407)"
     inkscape:export-xdpi="54.77"
     inkscape:export-ydpi="54.77"><path
       style="fill:#231f20"
       inkscape:connector-curvature="0"
       id="path6"
       d="m 16.954,50 c -4.4,0 -6.2,-3.118 -4,-6.928 L 28,17.012 c 2.2,-3.811 5.8,-3.811 8,0 l 15.046,26.06 c 2.2,3.811 0.4,6.928 -4,6.928 z" /></g><g
     id="g12"
     inkscape:export-xdpi="54.77"
     inkscape:export-ydpi="54.77"><path
       style="fill:#ffa354;fill-opacity:1"
       inkscape:connector-curvature="0"
       id="path10"
       d="m 16.954,48 c -4.4,0 -6.2,-3.118 -4,-6.928 L 28,15.012 c 2.2,-3.811 5.8,-3.811 8,0 l 15.046,26.06 c 2.2,3.811 0.4,6.928 -4,6.928 z" /></g><g
     id="g16"
     inkscape:export-xdpi="54.77"
     inkscape:export-ydpi="54.77"><path
       style="fill:#4f5d73"
       inkscape:connector-curvature="0"
       id="path14"
       d="m 34,32 c 0,1.105 -0.895,2 -2,2 v 0 c -1.105,0 -2,-0.895 -2,-2 v -8 c 0,-1.105 0.895,-2 2,-2 v 0 c 1.105,0 2,0.895 2,2 z" /></g><g
     id="g20"
     inkscape:export-xdpi="54.77"
     inkscape:export-ydpi="54.77"><path
       style="fill:#4f5d73"
       inkscape:connector-curvature="0"
       id="path18"
       d="m 34,40 c 0,1.105 -0.895,2 -2,2 v 0 c -1.105,0 -2,-0.895 -2,-2 v 0 c 0,-1.105 0.895,-2 2,-2 v 0 c 1.105,0 2,0.895 2,2 z" /></g><g
     id="Layer_2" /></svg>