<?xml version="1.0" encoding="UTF-8" standalone="no"?>
<!-- Created with Inkscape (http://www.inkscape.org/) -->

<svg
   xmlns:dc="http://purl.org/dc/elements/1.1/"
   xmlns:cc="http://creativecommons.org/ns#"
   xmlns:rdf="http://www.w3.org/1999/02/22-rdf-syntax-ns#"
   xmlns:svg="http://www.w3.org/2000/svg"
   xmlns="http://www.w3.org/2000/svg"
   xmlns:sodipodi="http://sodipodi.sourceforge.net/DTD/sodipodi-0.dtd"
   xmlns:inkscape="http://www.inkscape.org/namespaces/inkscape"
   width="1052.3622"
   height="744.09448"
   id="svg2"
   version="1.1"
   inkscape:version="0.92.4 (f8dce91, 2019-08-02)"
   sodipodi:docname="building_block_rsu.svg"
   inkscape:export-filename="/home/gpetit/Documents/Codes/geoclimate/docs/images/building_block_rsu.png"
   inkscape:export-xdpi="157.1696"
   inkscape:export-ydpi="157.1696">
  <defs
     id="defs4" />
  <sodipodi:namedview
     id="base"
     pagecolor="#ffffff"
     bordercolor="#666666"
     borderopacity="1.0"
     inkscape:pageopacity="0.0"
     inkscape:pageshadow="2"
     inkscape:zoom="0.98994949"
     inkscape:cx="519.16594"
     inkscape:cy="324.62127"
     inkscape:document-units="px"
     inkscape:current-layer="layer1"
     showgrid="false"
     inkscape:window-width="1920"
     inkscape:window-height="1163"
     inkscape:window-x="1920"
     inkscape:window-y="0"
     inkscape:window-maximized="1" />
  <metadata
     id="metadata7">
    <rdf:RDF>
      <cc:Work
         rdf:about="">
        <dc:format>image/svg+xml</dc:format>
        <dc:type
           rdf:resource="http://purl.org/dc/dcmitype/StillImage" />
        <dc:title />
      </cc:Work>
    </rdf:RDF>
  </metadata>
  <g
     inkscape:groupmode="layer"
     id="layer3"
     inkscape:label="USR"
     style="display:inline">
    <path
       style="fill:none;stroke:#000000;stroke-width:0.5;stroke-linecap:butt;stroke-linejoin:round;stroke-miterlimit:4;stroke-opacity:1;stroke-dasharray:none;stroke-dashoffset:0"
       d="m 140.71429,244.80877 180,0 0,159.28571 -99.28571,0 -41.21749,23.79693 -39.4968,0 z"
       id="path3817"
       inkscape:connector-curvature="0" />
    <path
       inkscape:connector-curvature="0"
       id="path3819"
       d="m 419.28572,198.3802 -98.57143,46.42857 0,159.28571 -99.28571,0 -41.21749,23.79693 239.07463,60 z"
       style="fill:none;stroke:#000000;stroke-width:0.5;stroke-linecap:butt;stroke-linejoin:round;stroke-miterlimit:4;stroke-opacity:1;stroke-dasharray:none;stroke-dashoffset:0"
       sodipodi:nodetypes="ccccccc" />
    <path
       sodipodi:nodetypes="ccccc"
       style="fill:none;stroke:#000000;stroke-width:0.5;stroke-linecap:butt;stroke-linejoin:round;stroke-miterlimit:4;stroke-opacity:1;stroke-dasharray:none;stroke-dashoffset:0"
       d="m 419.28572,508.76017 -282.14285,-0.37998 43.06822,-80.48878 239.07463,60 z"
       id="path3821"
       inkscape:connector-curvature="0" />
    <path
       inkscape:connector-curvature="0"
       id="path3823"
       d="m 140.71429,244.80877 180,0 98.57143,-46.49554 -166.42857,-66.3616 -193.571436,48.79693 z"
       style="fill:none;stroke:#000000;stroke-width:0.5;stroke-linecap:butt;stroke-linejoin:round;stroke-miterlimit:4;stroke-opacity:1;stroke-dasharray:none;stroke-dashoffset:0"
       sodipodi:nodetypes="cccccc" />
    <path
       inkscape:connector-curvature="0"
       id="path3825"
       d="m 140.71429,244.80877 -81.431986,-64.06746 -9.793977,125.87345 -1.40807,177.78685 89.064713,23.91978 43.06612,-80.42998 -39.4968,0 z"
       style="fill:none;stroke:#000000;stroke-width:0.5;stroke-linecap:butt;stroke-linejoin:round;stroke-miterlimit:4;stroke-opacity:1;stroke-dasharray:none;stroke-dashoffset:0"
       sodipodi:nodetypes="cccccccc" />
    <path
       inkscape:connector-curvature="0"
       id="path3853"
       d="m 726.42858,244.80877 180,0 0,159.28571 -99.28571,0 -41.21749,23.79693 -39.4968,0 z"
       style="fill:none;stroke:#000000;stroke-width:0.5;stroke-linecap:butt;stroke-linejoin:round;stroke-miterlimit:4;stroke-opacity:1;stroke-dasharray:none;stroke-dashoffset:0" />
    <path
       sodipodi:nodetypes="ccccccc"
       style="fill:none;stroke:#000000;stroke-width:0.5;stroke-linecap:butt;stroke-linejoin:round;stroke-miterlimit:4;stroke-opacity:1;stroke-dasharray:none;stroke-dashoffset:0"
       d="m 1005,198.3802 -98.57142,46.42857 0,159.28571 -99.28571,0 -41.21749,23.79693 239.07462,60 z"
       id="path3855"
       inkscape:connector-curvature="0" />
    <path
       inkscape:connector-curvature="0"
       id="path3857"
       d="m 1005,508.76017 -282.14284,-0.37998 43.06822,-80.48878 239.07462,60 z"
       style="fill:none;stroke:#000000;stroke-width:0.5;stroke-linecap:butt;stroke-linejoin:round;stroke-miterlimit:4;stroke-opacity:1;stroke-dasharray:none;stroke-dashoffset:0"
       sodipodi:nodetypes="ccccc" />
    <path
       sodipodi:nodetypes="cccccc"
       style="fill:none;stroke:#000000;stroke-width:0.5;stroke-linecap:butt;stroke-linejoin:round;stroke-miterlimit:4;stroke-opacity:1;stroke-dasharray:none;stroke-dashoffset:0"
       d="m 726.42858,244.80877 180,0 L 1005,198.31323 838.57144,131.95162 645,180.74855 z"
       id="path3859"
       inkscape:connector-curvature="0" />
    <path
       sodipodi:nodetypes="cccccccc"
       style="fill:none;stroke:#000000;stroke-width:0.5;stroke-linecap:butt;stroke-linejoin:round;stroke-miterlimit:4;stroke-opacity:1;stroke-dasharray:none;stroke-dashoffset:0"
       d="m 726.42858,244.80877 -81.43199,-64.06747 -9.79397,125.87346 -1.40807,177.78685 89.06471,23.91978 43.06612,-80.42998 -39.4968,0 z"
       id="path3861"
       inkscape:connector-curvature="0" />
  </g>
  <g
     inkscape:label="Calque 1"
     inkscape:groupmode="layer"
     id="layer1"
     transform="translate(0,-308.2677)"
     style="display:inline">
    <path
       style="fill:#cccccc;stroke:#000000;stroke-width:1px;stroke-linecap:round;stroke-linejoin:round;stroke-opacity:1"
       d="m 215.52144,629.31853 0,-35.35534 42.42641,0 0,25.89899 -20.44785,0 0,11.42857 -19.66517,0 z"
       id="path3023"
       inkscape:connector-curvature="0" />
    <path
       inkscape:connector-curvature="0"
       id="path3025"
       d="m 298.85903,615.68147 -0.25254,-21.71828 -40.65864,0 0,25.89899 -20.44785,0 0,7.38796 46.12101,0 z"
       style="fill:#cccccc;stroke:#000000;stroke-width:1px;stroke-linecap:round;stroke-linejoin:round;stroke-opacity:1"
       sodipodi:nodetypes="cccccccc" />
    <path
       sodipodi:nodetypes="ccccc"
       style="fill:#cccccc;stroke:#000000;stroke-width:1px;stroke-linecap:round;stroke-linejoin:round;stroke-opacity:1"
       d="m 298.85903,573.76014 -0.25254,20.20305 -35.98668,0 0,-20.06295 c 24.2339,0 34.65854,-0.0151 36.23922,-0.1401 z"
       id="path3027"
       inkscape:connector-curvature="0" />
    <path
       inkscape:connector-curvature="0"
       id="path3029"
       d="m 298.85903,653.56219 -0.25254,20.20305 -79.1707,0 0,-20.06295 c 24.2339,0 77.84256,-0.0151 79.42324,-0.1401 z"
       style="fill:#cccccc;stroke:#000000;stroke-width:1px;stroke-linecap:round;stroke-linejoin:round;stroke-opacity:1"
       sodipodi:nodetypes="ccccc" />
    <path
       sodipodi:nodetypes="ccccc"
       style="fill:#cccccc;stroke:#000000;stroke-width:1px;stroke-linecap:round;stroke-linejoin:round;stroke-opacity:1"
       d="m 187.17403,662.96923 -28.03173,-0.25254 0,-60.73542 27.89163,0 c 0,24.2339 0.0151,59.40728 0.1401,60.98796 z"
       id="path3031"
       inkscape:connector-curvature="0" />
    <path
       inkscape:connector-curvature="0"
       id="path3033"
       d="m 187.17403,662.96923 -28.03173,-0.25254 0,44.62172 13.94581,-0.005 0.0281,-18.50089 13.91771,-0.0656 c 0,-9.47994 0.0151,-27.37843 0.1401,-25.79775 z"
       style="fill:#cccccc;stroke:#000000;stroke-width:1px;stroke-linecap:round;stroke-linejoin:round;stroke-opacity:1"
       sodipodi:nodetypes="cccccccc" />
    <path
       sodipodi:nodetypes="ccccc"
       style="fill:#cccccc;stroke:#000000;stroke-width:1px;stroke-linecap:round;stroke-linejoin:round;stroke-opacity:1"
       d="m 390.27077,566.18399 -0.24548,44.44671 -40.7849,-24.24366 0,-20.06295 c 24.2339,0 41.03038,-0.1401 41.03038,-0.1401 z"
       id="path3827"
       inkscape:connector-curvature="0" />
    <path
       inkscape:connector-curvature="0"
       id="path3829"
       d="m 151.37675,520.72713 0,-35.35534 114.56927,0 0,25.89899 -92.59071,0 0,6.78571 z"
       style="fill:#cccccc;stroke:#000000;stroke-width:1px;stroke-linecap:round;stroke-linejoin:round;stroke-opacity:1"
       sodipodi:nodetypes="ccccccc" />
    <path
       sodipodi:nodetypes="ccccc"
       style="fill:#cccccc;stroke:#000000;stroke-width:1px;stroke-linecap:round;stroke-linejoin:round;stroke-opacity:1"
       d="m 323.87675,520.72713 -0.35714,-35.35534 -57.57359,0 0,25.89899 z"
       id="path3831"
       inkscape:connector-curvature="0" />
    <path
       inkscape:connector-curvature="0"
       id="path3833"
       d="m 66.397664,631.84391 0.25254,-28.03173 29.168153,0 0,27.89163 c -24.2339,0 -27.840013,0.0151 -29.420693,0.1401 z"
       style="fill:#cccccc;stroke:#000000;stroke-width:1px;stroke-linecap:round;stroke-linejoin:round;stroke-opacity:1"
       sodipodi:nodetypes="ccccc" />
    <path
       sodipodi:nodetypes="ccccc"
       style="fill:#cccccc;stroke:#000000;stroke-width:1px;stroke-linecap:round;stroke-linejoin:round;stroke-opacity:1"
       d="m 79.466512,659.68624 0.25254,-28.03173 29.168148,0 0,27.89163 c -24.233895,0 -27.840008,0.0151 -29.420688,0.1401 z"
       id="path3835"
       inkscape:connector-curvature="0" />
    <path
       inkscape:connector-curvature="0"
       id="path3837"
       d="m 79.466512,716.25478 0.25254,-28.03173 29.168148,0 0,27.89163 c -24.233895,0 -27.840008,0.0151 -29.420688,0.1401 z"
       style="fill:#cccccc;stroke:#000000;stroke-width:1px;stroke-linecap:round;stroke-linejoin:round;stroke-opacity:1"
       sodipodi:nodetypes="ccccc" />
    <path
       sodipodi:nodetypes="ccccc"
       style="fill:#cccccc;stroke:#000000;stroke-width:1px;stroke-linecap:round;stroke-linejoin:round;stroke-opacity:1"
       d="m 66.397664,744.15657 0.25254,-28.03173 29.168153,0 0,27.89163 c -24.2339,0 -27.840013,0.0151 -29.420693,0.1401 z"
       id="path3839"
       inkscape:connector-curvature="0" />
    <path
       style="fill:#ffbd55;fill-opacity:1;stroke:#000000;stroke-width:1px;stroke-linecap:round;stroke-linejoin:round;stroke-opacity:1"
       d="m 884.55804,573.75877 c -1.58068,0.125 -11.98485,0.15625 -36.21875,0.15625 l 0,20.0625 -4.6875,0 -42.40625,0 0,35.34375 2.3125,1.96875 19.65625,0 0,-4.03125 46.125,0 15.21875,-11.5625 -0.25,-21.71875 0.25,-20.21875 z"
       id="path3841"
       inkscape:connector-curvature="0" />
    <path
       sodipodi:nodetypes="ccccc"
       style="fill:#ffbd55;fill-opacity:1;stroke:#000000;stroke-width:1px;stroke-linecap:round;stroke-linejoin:round;stroke-opacity:1"
       d="m 884.57332,653.56219 -0.25254,20.20305 -79.1707,0 0,-20.06295 c 24.2339,0 77.84256,-0.0151 79.42324,-0.1401 z"
       id="path3847"
       inkscape:connector-curvature="0" />
    <path
       style="fill:#ffbd55;fill-opacity:1;stroke:#000000;stroke-width:1px;stroke-linecap:round;stroke-linejoin:round;stroke-opacity:1"
       d="m 744.87054,601.97752 0,60.75 0,44.625 13.9375,-0.0312 0.0312,-18.5 13.90625,-0.0625 c 0,-8.72718 0.0254,-24.55048 0.125,-25.78125 l 0.0312,0 c -0.125,-1.58068 -0.15625,-36.7661 -0.15625,-61 l -27.875,0 z"
       id="path3849"
       inkscape:connector-curvature="0" />
    <path
       inkscape:connector-curvature="0"
       id="path3863"
       d="m 975.98506,566.18399 -0.24548,44.44671 -40.7849,-24.24366 0,-20.06295 c 24.2339,0 41.03038,-0.1401 41.03038,-0.1401 z"
       style="fill:#ffbd55;fill-opacity:1;stroke:#000000;stroke-width:1px;stroke-linecap:round;stroke-linejoin:round;stroke-opacity:1"
       sodipodi:nodetypes="ccccc" />
    <path
       style="fill:#ffbd55;fill-opacity:1;stroke:#000000;stroke-width:1px;stroke-linecap:round;stroke-linejoin:round;stroke-opacity:1"
       d="m 737.08929,485.38377 0,35.34375 21.96875,-2.65625 0,-6.8125 92.59375,0 57.9375,9.46875 -0.34375,-35.34375 -57.59375,0 -114.5625,0 z"
       id="path3865"
       inkscape:connector-curvature="0" />
    <path
       style="fill:#ffbd55;fill-opacity:1;stroke:#000000;stroke-width:1px;stroke-linecap:round;stroke-linejoin:round;stroke-opacity:1"
       d="m 652.37054,603.82127 -0.25,28.03125 c 1.03213,-0.0816 5.37434,-0.1107 13.3125,-0.125 l -0.25,27.96875 c 1.58068,-0.125 5.17235,-0.15625 29.40625,-0.15625 l 0,-27.875 -13.0625,0 0,-27.84375 -29.15625,0 z"
       id="path3869"
       inkscape:connector-curvature="0" />
    <path
       style="fill:#ffbd55;fill-opacity:1;stroke:#000000;stroke-width:1px;stroke-linecap:round;stroke-linejoin:round;stroke-opacity:1"
       d="m 665.43304,688.22752 -0.25,27.90625 -12.8125,0 -0.25,28.03125 c 1.58068,-0.125 5.17235,-0.15625 29.40625,-0.15625 l 0,-27.875 c 3.96855,-0.005 6.2365,-0.0312 13.0625,-0.0312 l 0,-27.875 -29.15625,0 z"
       id="path3873"
       inkscape:connector-curvature="0" />
    <g
       id="g898"
       transform="translate(-32.209554)">
      <path
         inkscape:connector-curvature="0"
         id="path3885"
         d="m 253.24638,885.5018 0.34843,-17.98924 h 40.24298 v 17.89933 c -33.43525,0 -38.41056,0.01 -40.59141,0.0899 z"
         style="fill:#cccccc;stroke:#000000;stroke-width:0.94096208px;stroke-linecap:round;stroke-linejoin:round;stroke-opacity:1"
         sodipodi:nodetypes="ccccc" />
      <flowRoot
         transform="matrix(0.67922408,0,0,0.67922408,180.12919,552.16027)"
         style="font-style:normal;font-weight:normal;line-height:0.01%;font-family:sans-serif;letter-spacing:0px;word-spacing:0px;fill:#000000;fill-opacity:1;stroke:none"
         id="flowRoot3887"
         xml:space="preserve"><flowRegion
           id="flowRegion3889"
           style="font-family:sans-serif"><rect
             y="453.17056"
             x="192.43407"
             height="87.88327"
             width="320.21835"
             id="rect3891"
             style="font-family:sans-serif" /></flowRegion><flowPara
           style="font-size:40px;line-height:1.25;font-family:'Walkway Bold';-inkscape-font-specification:'Walkway Bold'"
           id="flowPara3893">Building</flowPara></flowRoot>    </g>
    <g
       id="g891"
       transform="translate(-39.792179)">
      <path
         sodipodi:nodetypes="ccccc"
         style="fill:#ffbd55;fill-opacity:1;stroke:#000000;stroke-width:0.94096208px;stroke-linecap:round;stroke-linejoin:round;stroke-opacity:1"
         d="m 528.23257,885.5018 0.34843,-17.98924 h 40.24298 v 17.89933 c -33.43525,0 -38.41056,0.01 -40.59141,0.0899 z"
         id="path3895"
         inkscape:connector-curvature="0" />
      <flowRoot
         xml:space="preserve"
         id="flowRoot3897"
         style="font-style:normal;font-weight:normal;line-height:0.01%;font-family:sans-serif;letter-spacing:0px;word-spacing:0px;fill:#000000;fill-opacity:1;stroke:none"
         transform="matrix(0.67922408,0,0,0.67922408,455.11539,554.79359)"><flowRegion
           id="flowRegion3899"
           style="font-family:sans-serif"><rect
             id="rect3901"
             width="320.21835"
             height="87.88327"
             x="192.43407"
             y="453.17056"
             style="font-family:sans-serif" /></flowRegion><flowPara
           id="flowPara3903"
           style="font-size:40px;line-height:1.25;font-family:'Walkway Bold';-inkscape-font-specification:'Walkway Bold'">Block</flowPara></flowRoot>    </g>
    <g
       id="g884"
       transform="translate(-13.824828)">
      <path
         inkscape:connector-curvature="0"
         id="path3905"
         d="m 735.08911,885.50172 0.34843,-17.98924 h 40.24298 v 17.89933 c -33.43525,0 -38.41056,0.01 -40.59141,0.0899 z"
         style="fill:none;stroke:#000000;stroke-width:0.5;stroke-linecap:round;stroke-linejoin:round;stroke-miterlimit:4;stroke-dasharray:none;stroke-dashoffset:0;stroke-opacity:1"
         sodipodi:nodetypes="ccccc" />
      <flowRoot
         transform="matrix(0.67922408,0,0,0.67922408,661.9719,554.5548)"
         style="font-style:normal;font-weight:normal;line-height:0.01%;font-family:sans-serif;letter-spacing:0px;word-spacing:0px;fill:#000000;fill-opacity:1;stroke:none"
         id="flowRoot3907"
         xml:space="preserve"><flowRegion
           id="flowRegion3909"
           style="font-family:sans-serif"><rect
             y="453.17056"
             x="192.43407"
             height="87.88327"
             width="320.21835"
             id="rect3911"
             style="font-family:sans-serif" /></flowRegion><flowPara
           style="font-size:40px;line-height:1.25;font-family:'Walkway Bold';-inkscape-font-specification:'Walkway Bold'"
           id="flowPara3913">RSU</flowPara></flowRoot>    </g>
  </g>
</svg>
